<?xml version="1.0" encoding="utf-8"?><!-- Generator: Iparigrafika Gear Generator by Abel Vincze http://geargenerator.com/ --><svg version="1.2" class="svggear" xmlns="http://www.w3.org/2000/svg" xmlns:xlink="http://www.w3.org/1999/xlink" x="0px" y="0px" width="168px" height="168px" viewBox="-84 -84 168 168" overflow="scroll" xml:space="preserve"><polygon id="gearpoly1" data-id="1" class="gear" fill="#ddd" stroke="#444" stroke-width="1" stroke-miterlimit="10" points="47.5,0 65.2198,-0.0001 65.3314,-0.005 65.5664,-0.0249 65.9235,-0.0708 66.4006,-0.1532 66.9949,-0.2828 67.7031,-0.4697 68.521,-0.7241 69.4439,-1.0559 70.4663,-1.4747 71.5822,-1.9896 72.7849,-2.6096 74.0673,-3.343 75.4214,-4.198 76.8389,-5.1819 78.311,-6.3019 79.8283,-7.5644 81.3809,-8.9753 82.6688,-10.5032 80.2933,-22.3032 78.5146,-23.2137 76.5369,-23.914 74.6493,-24.491 72.8585,-24.9541 71.1707,-25.3129 69.5912,-25.5772 68.125,-25.7574 66.776,-25.8636 65.5478,-25.9067 64.443,-25.8972 63.4636,-25.8461 62.611,-25.7642 61.8856,-25.6625 61.2875,-25.552 60.8157,-25.4434 60.4687,-25.3475 60.2442,-25.275 60.1394,-25.2363 43.7999,-18.3798 33.5876,-33.5876 46.1173,-46.1174 46.1928,-46.1998 46.3448,-46.3801 46.5649,-46.665 46.8439,-47.0607 47.1726,-47.5725 47.5412,-48.2054 47.9396,-48.9637 48.3576,-49.8509 48.7844,-50.8699 49.2094,-52.0231 49.6215,-53.312 50.0096,-54.7374 50.3626,-56.2994 50.6692,-57.9975 50.9182,-59.8303 51.0983,-61.7959 51.1985,-63.8915 51.0288,-65.8825 41.0052,-72.5467 39.1036,-71.9328 37.21,-71.0295 35.4673,-70.1028 33.8735,-69.164 32.4264,-68.2242 31.1226,-67.2943 29.9584,-66.3848 28.9294,-65.5061 28.0305,-64.6681 27.256,-63.8802 26.5996,-63.1515 26.0546,-62.4907 25.6136,-61.9059 25.2688,-61.4048 25.012,-60.9944 24.8344,-60.6812 24.727,-60.4712 24.6802,-60.3697 17.9747,-43.9677 0,-47.5 -0.0001,-65.2198 -0.005,-65.3314 -0.0249,-65.5664 -0.0708,-65.9235 -0.1532,-66.4006 -0.2828,-66.9949 -0.4697,-67.7031 -0.7241,-68.521 -1.0559,-69.4439 -1.4747,-70.4663 -1.9896,-71.5822 -2.6096,-72.7849 -3.343,-74.0673 -4.198,-75.4214 -5.1819,-76.8389 -6.3019,-78.311 -7.5644,-79.8283 -8.9753,-81.3809 -10.5032,-82.6688 -22.3032,-80.2933 -23.2137,-78.5146 -23.914,-76.5369 -24.491,-74.6493 -24.9541,-72.8585 -25.3129,-71.1707 -25.5772,-69.5912 -25.7574,-68.125 -25.8636,-66.776 -25.9067,-65.5478 -25.8972,-64.443 -25.8461,-63.4636 -25.7642,-62.611 -25.6625,-61.8856 -25.552,-61.2875 -25.4434,-60.8157 -25.3475,-60.4687 -25.275,-60.2442 -25.2363,-60.1394 -18.3798,-43.7999 -33.5876,-33.5876 -46.1174,-46.1173 -46.1998,-46.1928 -46.3801,-46.3448 -46.665,-46.5649 -47.0607,-46.8439 -47.5725,-47.1726 -48.2054,-47.5412 -48.9637,-47.9396 -49.8509,-48.3576 -50.8699,-48.7844 -52.0231,-49.2094 -53.312,-49.6215 -54.7374,-50.0096 -56.2994,-50.3626 -57.9975,-50.6692 -59.8303,-50.9182 -61.7959,-51.0983 -63.8915,-51.1985 -65.8825,-51.0288 -72.5467,-41.0052 -71.9328,-39.1036 -71.0295,-37.21 -70.1028,-35.4673 -69.164,-33.8735 -68.2242,-32.4264 -67.2943,-31.1226 -66.3848,-29.9584 -65.5061,-28.9294 -64.6681,-28.0305 -63.8802,-27.256 -63.1515,-26.5996 -62.4907,-26.0546 -61.9059,-25.6136 -61.4048,-25.2688 -60.9944,-25.012 -60.6812,-24.8344 -60.4712,-24.727 -60.3697,-24.6802 -43.9677,-17.9747 -47.5,0 -65.2198,0.0001 -65.3314,0.005 -65.5664,0.0249 -65.9235,0.0708 -66.4006,0.1532 -66.9949,0.2828 -67.7031,0.4697 -68.521,0.7241 -69.4439,1.0559 -70.4663,1.4747 -71.5822,1.9896 -72.7849,2.6096 -74.0673,3.343 -75.4214,4.198 -76.8389,5.1819 -78.311,6.3019 -79.8283,7.5644 -81.3809,8.9753 -82.6688,10.5032 -80.2933,22.3032 -78.5146,23.2137 -76.5369,23.914 -74.6493,24.491 -72.8585,24.9541 -71.1707,25.3129 -69.5912,25.5772 -68.125,25.7574 -66.776,25.8636 -65.5478,25.9067 -64.443,25.8972 -63.4636,25.8461 -62.611,25.7642 -61.8856,25.6625 -61.2875,25.552 -60.8157,25.4434 -60.4687,25.3475 -60.2442,25.275 -60.1394,25.2363 -43.7999,18.3798 -33.5876,33.5876 -46.1173,46.1174 -46.1928,46.1998 -46.3448,46.3801 -46.5649,46.665 -46.8439,47.0607 -47.1726,47.5725 -47.5412,48.2054 -47.9396,48.9637 -48.3576,49.8509 -48.7844,50.8699 -49.2094,52.0231 -49.6215,53.312 -50.0096,54.7374 -50.3626,56.2994 -50.6692,57.9975 -50.9182,59.8303 -51.0983,61.7959 -51.1985,63.8915 -51.0288,65.8825 -41.0052,72.5467 -39.1036,71.9328 -37.21,71.0295 -35.4673,70.1028 -33.8735,69.164 -32.4264,68.2242 -31.1226,67.2943 -29.9584,66.3848 -28.9294,65.5061 -28.0305,64.6681 -27.256,63.8802 -26.5996,63.1515 -26.0546,62.4907 -25.6136,61.9059 -25.2688,61.4048 -25.012,60.9944 -24.8344,60.6812 -24.727,60.4712 -24.6802,60.3697 -17.9747,43.9677 0,47.5 0.0001,65.2198 0.005,65.3314 0.0249,65.5664 0.0708,65.9235 0.1532,66.4006 0.2828,66.9949 0.4697,67.7031 0.7241,68.521 1.0559,69.4439 1.4747,70.4663 1.9896,71.5822 2.6096,72.7849 3.343,74.0673 4.198,75.4214 5.1819,76.8389 6.3019,78.311 7.5644,79.8283 8.9753,81.3809 10.5032,82.6688 22.3032,80.2933 23.2137,78.5146 23.914,76.5369 24.491,74.6493 24.9541,72.8585 25.3129,71.1707 25.5772,69.5912 25.7574,68.125 25.8636,66.776 25.9067,65.5478 25.8972,64.443 25.8461,63.4636 25.7642,62.611 25.6625,61.8856 25.552,61.2875 25.4434,60.8157 25.3475,60.4687 25.275,60.2442 25.2363,60.1394 18.3798,43.7999 33.5876,33.5876 46.1174,46.1173 46.1998,46.1928 46.3801,46.3448 46.665,46.5649 47.0607,46.8439 47.5725,47.1726 48.2054,47.5412 48.9637,47.9396 49.8509,48.3576 50.8699,48.7844 52.0231,49.2094 53.312,49.6215 54.7374,50.0096 56.2994,50.3626 57.9975,50.6692 59.8303,50.9182 61.7959,51.0983 63.8915,51.1985 65.8825,51.0288 72.5467,41.0052 71.9328,39.1036 71.0295,37.21 70.1028,35.4673 69.164,33.8735 68.2242,32.4264 67.2943,31.1226 66.3848,29.9584 65.5061,28.9294 64.6681,28.0305 63.8802,27.256 63.1515,26.5996 62.4907,26.0546 61.9059,25.6136 61.4048,25.2688 60.9944,25.012 60.6812,24.8344 60.4712,24.727 60.3697,24.6802 43.9677,17.9747 "/><g class="guides"><polyline fill="none" stroke="#444" stroke-width="0.5" stroke-miterlimit="10" points="10,0 -10,0"/><polyline fill="none" stroke="#444" stroke-width="0.5" stroke-miterlimit="10" points="0,10 0,-10"/></g><circle fill="#c00" class="firstmarker" stroke="none" stroke-miterlimit="10" cx="65.3555" cy="-13.1569" r="6.5417"/><g class="geartext"><g class="text"><polyline fill="none" stroke="#444" stroke-width="0.5" stroke-linecap="square" stroke-miterlimit="1"  points="-23.6 -27.43 -24.45 -26.68 -25.27 -25.91 -26.07 -25.1 -26.84 -24.28 "/><polyline fill="none" stroke="#444" stroke-width="0.5" stroke-linecap="square" stroke-miterlimit="1"  points="-23.69 -24.29 -26.85 -27.53 "/><polyline fill="none" stroke="#444" stroke-width="0.5" stroke-linecap="square" stroke-miterlimit="1"  points="-25.08 -29.15 -25.21 -27.52 -25.27 -25.91 -25.25 -24.32 -25.16 -22.76 "/><polyline fill="none" stroke="#444" stroke-width="0.5" stroke-linecap="square" stroke-miterlimit="1"  points="-22.13 -25.72 -23.68 -25.85 -25.27 -25.91 -26.88 -25.89 -28.52 -25.8 "/><polyline fill="none" stroke="#444" stroke-width="0.5" stroke-linecap="square" stroke-miterlimit="1"  points="-23.21 -30.66 -22.89 -32.29 -18.97 -26.76 "/><polyline fill="none" stroke="#444" stroke-width="0.5" stroke-linecap="square" stroke-miterlimit="1"  points="-18.12 -27.34 -18.97 -26.76 -19.8 -26.15 "/><polyline fill="none" stroke="#444" stroke-width="0.5" stroke-linecap="square" stroke-miterlimit="1"  points="-9.47 -38.43 -7.85 -31.84 -9.3 -33.22 -10.84 -34.53 -12.47 -35.78 -14.19 -36.95 -11.76 -30.62 "/><polyline fill="none" stroke="#444" stroke-width="0.5" stroke-linecap="square" stroke-miterlimit="1"  points="-2.02 -37.27 -3.19 -37.19 -4.35 -37.07 -5.5 -36.91 -6.65 -36.72 "/><polyline fill="none" stroke="#444" stroke-width="0.5" stroke-linecap="square" stroke-miterlimit="1"  points="-1.9 -35.01 -2.99 -34.93 -4.08 -34.82 -5.17 -34.68 -6.25 -34.5 "/><polyline fill="none" stroke="#444" stroke-width="0.5" stroke-linecap="square" stroke-miterlimit="1"  points="1.43 -36.16 0.29 -35.06 0.28 -33.93 1.3 -32.77 2.32 -32.72 3.34 -32.63 4.51 -33.63 4.66 -34.75 3.69 -36 2.56 -36.1 1.43 -36.16 0.31 -37.32 0.32 -38.45 1.56 -39.55 2.8 -39.48 4.03 -39.38 5.11 -38.11 4.96 -36.99 3.69 -36 "/><polyline fill="none" stroke="#444" stroke-width="0.5" stroke-linecap="square" stroke-miterlimit="1"  points="12.48 -33.97 13.53 -33.56 14.58 -33.13 15.6 -32.65 17.14 -33.15 17.66 -34.16 17.07 -35.71 15.94 -36.23 14.8 -36.71 13.65 -37.16 11.31 -30.79 "/><polyline fill="none" stroke="#444" stroke-width="0.5" stroke-linecap="square" stroke-miterlimit="1"  points="16.85 -28.14 19.17 -32.02 "/><polyline fill="none" stroke="#444" stroke-width="0.5" stroke-linecap="square" stroke-miterlimit="1"  points="19.75 -32.99 20.34 -33.96 "/><polyline fill="none" stroke="#444" stroke-width="0.5" stroke-linecap="square" stroke-miterlimit="1"  points="22.55 -25.35 21.02 -25.17 20.92 -26.71 24.41 -31.16 "/><polyline fill="none" stroke="#444" stroke-width="0.5" stroke-linecap="square" stroke-miterlimit="1"  points="24.81 -27.88 23.92 -28.65 23.02 -29.38 22.09 -30.08 21.14 -30.76 "/><polyline fill="none" stroke="#444" stroke-width="0.5" stroke-linecap="square" stroke-miterlimit="1"  points="25.99 -20.01 25.35 -20.81 24.68 -21.6 24 -22.36 24.09 -23.89 25.7 -25.48 27.31 -25.44 28.09 -24.57 28.84 -23.68 29.57 -22.77 "/><polyline fill="none" stroke="#444" stroke-width="0.5" stroke-linecap="square" stroke-miterlimit="1"  points="29.06 -19.61 30.61 -19.3 32.18 -18.91 32.75 -17.89 32.29 -16.35 29.26 -14.82 "/><polyline fill="none" stroke="#444" stroke-width="0.5" stroke-linecap="square" stroke-miterlimit="1"  points="27.18 -18.35 32.81 -22.15 "/><polyline fill="none" stroke="#444" stroke-width="0.5" stroke-linecap="square" stroke-miterlimit="1"  points="31.78 -8.11 32.02 -7.12 32.22 -6.11 32.4 -5.1 33.66 -4.23 38.15 -4.79 39.1 -6.16 38.89 -7.38 38.64 -8.59 38.35 -9.79 "/><polyline fill="none" stroke="#444" stroke-width="0.5" stroke-linecap="square" stroke-miterlimit="1"  points="38.64 -8.59 32.02 -7.12 "/><polyline fill="none" stroke="#444" stroke-width="0.5" stroke-linecap="square" stroke-miterlimit="1"  points="37.25 2.33 37.3 1.17 37.32 0 37.3 -1.17 37.25 -2.33 "/><polyline fill="none" stroke="#444" stroke-width="0.5" stroke-linecap="square" stroke-miterlimit="1"  points="34.99 2.19 35.04 1.1 35.06 0 35.04 -1.1 34.99 -2.19 "/><polyline fill="none" stroke="#444" stroke-width="0.5" stroke-linecap="square" stroke-miterlimit="1"  points="38.15 4.79 39.1 6.16 32.4 5.1 "/><polyline fill="none" stroke="#444" stroke-width="0.5" stroke-linecap="square" stroke-miterlimit="1"  points="32.22 6.11 32.4 5.1 32.54 4.09 "/><polyline fill="none" stroke="#444" stroke-width="0.5" stroke-linecap="square" stroke-miterlimit="1"  points="32.87 8.39 31.78 8.11 "/><polyline fill="none" stroke="#444" stroke-width="0.5" stroke-linecap="square" stroke-miterlimit="1"  points="36.59 11.82 37.27 13.34 36.83 14.5 36.36 15.64 34.83 16.29 33.81 15.81 33.24 14.3 31.76 14.85 30.73 14.37 30.13 12.96 30.52 12.01 30.88 11.05 32.29 10.43 "/><polyline fill="none" stroke="#444" stroke-width="0.5" stroke-linecap="square" stroke-miterlimit="1"  points="33.68 13.26 33.24 14.3 "/><polyline fill="none" stroke="#444" stroke-width="0.5" stroke-linecap="square" stroke-miterlimit="1"  points="33.75 18.44 34.13 20.05 33.48 21.11 32.81 22.15 31.18 22.5 30.27 21.84 30 20.25 28.43 20.51 27.51 19.85 27.18 18.35 27.74 17.49 28.28 16.62 29.78 16.27 "/><polyline fill="none" stroke="#444" stroke-width="0.5" stroke-linecap="square" stroke-miterlimit="1"  points="30.61 19.3 30 20.25 "/><polyline fill="none" stroke="#444" stroke-width="0.5" stroke-linecap="square" stroke-miterlimit="1"  points="24.05 27.04 23.2 27.78 22.32 28.49 21.42 29.17 21.14 30.76 21.78 31.69 23.43 31.91 24.41 31.16 25.37 30.38 26.31 29.57 21.8 24.5 "/><polyline fill="none" stroke="#444" stroke-width="0.5" stroke-linecap="square" stroke-miterlimit="1"  points="15.03 34.16 16.09 33.67 17.14 33.15 18.16 32.6 19.17 32.02 "/><polyline fill="none" stroke="#444" stroke-width="0.5" stroke-linecap="square" stroke-miterlimit="1"  points="14.12 32.09 15.12 31.63 16.1 31.15 17.06 30.63 18.01 30.08 "/><polyline fill="none" stroke="#444" stroke-width="0.5" stroke-linecap="square" stroke-miterlimit="1"  points="12.48 33.97 11.41 34.34 10.33 34.68 9.24 34.99 7.89 34.16 7.64 33.06 8.38 31.71 9.36 31.43 10.34 31.12 11.7 31.85 12.87 35.03 12.12 36.49 11.3 37.94 10.11 38.27 "/><polyline fill="none" stroke="#444" stroke-width="0.5" stroke-linecap="square" stroke-miterlimit="1"  points="0.3 36.19 -0.83 36.18 -1.96 36.14 -3.09 36.06 -4.35 37.07 -4.48 38.19 -3.38 39.44 -2.14 39.53 -0.91 39.57 0.33 39.58 0.27 32.8 "/><polyline fill="none" stroke="#444" stroke-width="0.5" stroke-linecap="square" stroke-miterlimit="1"  points="-5.85 32.27 -6.25 34.5 -7.8 36.5 -9.47 38.43 -10.06 35.94 -10.5 33.45 -9.82 31.29 "/><polyline fill="none" stroke="#444" stroke-width="0.5" stroke-linecap="square" stroke-miterlimit="1"  points="-6.25 34.5 -7.32 34.29 -8.39 34.04 -9.45 33.76 -10.5 33.45 "/><polyline fill="none" stroke="#444" stroke-width="0.5" stroke-linecap="square" stroke-miterlimit="1"  points="-17.62 32.9 -16.58 33.43 -15.53 33.94 -14.46 34.4 -13.38 34.84 "/><polyline fill="none" stroke="#444" stroke-width="0.5" stroke-linecap="square" stroke-miterlimit="1"  points="-16.55 30.91 -15.58 31.41 -14.59 31.88 -13.59 32.32 -12.57 32.73 "/><polyline fill="none" stroke="#444" stroke-width="0.5" stroke-linecap="square" stroke-miterlimit="1"  points="-20.24 32.7 -21.87 32.99 -18.12 27.34 "/><polyline fill="none" stroke="#444" stroke-width="0.5" stroke-linecap="square" stroke-miterlimit="1"  points="-18.97 26.76 -18.12 27.34 -17.26 27.89 "/><polyline fill="none" stroke="#444" stroke-width="0.5" stroke-linecap="square" stroke-miterlimit="1"  points="-23.62 22.75 -22.9 23.48 -22.16 24.18 -21.39 24.86 -20.6 25.52 -22.02 27.28 -23.6 27.43 -24.45 26.68 -25.27 25.91 -26.88 25.89 -27.7 26.67 -27.64 28.34 -26.74 29.19 -25.82 30.01 -24.15 29.92 "/></g></g><g class="guides gearguides" opacity="0.2"><circle class="pitch" fill="none" stroke="#f00" stroke-miterlimit="10" cx="0" cy="0" r="66.67"/><circle class="outer" fill="none" stroke="#ccc" stroke-miterlimit="10" stroke-dasharray="2,2" cx="0" cy="0" r="83.33"/><circle class="base" fill="none" stroke="#00f" stroke-miterlimit="10" stroke-dasharray="2,2" cx="0" cy="0" r="65.21"/></g></svg>